PathFileType	4	(X/Y/Z)	Walk8.trc
DataRate	CameraRate	NumFrames	NumMarkers	Units	OrigDataRate	OrigDataStartFrame	OrigNumFrames
200.000000	200.000000	9	54	mm	200.000000	370	521
Frame#	Times		RBHD		C7		RASI		RACR1		RUA1		RElbow		RFA1		RWRU		RCAR		LACR1		LElbowM		LFA1		LWRR		RTH1		RTH3		RTH2		RLFC		RTB1		RTB3		RTB2		RTB4		RMT1		RMT5		LTH2		RTH4		LWRU		LTH3		LTH4		LElbow		LPSI		RPSI		LTB1		LLFC		T10		RWRR		LTB4		LTB3		LBHD		LTH1		LMT1		RBack		LCAL		CLAV		LTB2		LLMAL		LToe		RLMAL		LMT5		RMMAL		RElbowM		RToe		LUA1		LCAR		RCAL
			X1	Y1	Z1	X2	Y2	Z2	X3	Y3	Z3	X4	Y4	Z4	X5	Y5	Z5	X6	Y6	Z6	X7	Y7	Z7	X8	Y8	Z8	X9	Y9	Z9	X10	Y10	Z10	X11	Y11	Z11	X12	Y12	Z12	X13	Y13	Z13	X14	Y14	Z14	X15	Y15	Z15	X16	Y16	Z16	X17	Y17	Z17	X18	Y18	Z18	X19	Y19	Z19	X20	Y20	Z20	X21	Y21	Z21	X22	Y22	Z22	X23	Y23	Z23	X24	Y24	Z24	X25	Y25	Z25	X26	Y26	Z26	X27	Y27	Z27	X28	Y28	Z28	X29	Y29	Z29	X30	Y30	Z30	X31	Y31	Z31	X32	Y32	Z32	X33	Y33	Z33	X34	Y34	Z34	X35	Y35	Z35	X36	Y36	Z36	X37	Y37	Z37	X38	Y38	Z38	X39	Y39	Z39	X40	Y40	Z40	X41	Y41	Z41	X42	Y42	Z42	X43	Y43	Z43	X44	Y44	Z44	X45	Y45	Z45	X46	Y46	Z46	X47	Y47	Z47	X48	Y48	Z48	X49	Y49	Z49	X50	Y50	Z50	X51	Y51	Z51	X52	Y52	Z52	X53	Y53	Z53	X54	Y54	Z54

370	1.85	459.88	1608	309	416.28	1460.8	253.62	486.09	953.32	402.14	482.25	1422.9	402.95	437.76	1239.4	498.06	394.24	1115.6	536.54	452.32	975.53	553.38	459.7	845.92	547.11	511.62	800.81	549.48	447.92	1438.2	79.486	330.67	1120.4	64.131	418.54	980.25	-53.42	467.72	870.72	-19.307	457.31	748.87	444.67	523.3	570.95	435.57	557.06	685.77	427.14	539.62	476.71	427.04	532.43	377.58	344.85	401.96	239.63	340.71	453.2	318.22	415.54	470.58	309.09	344.44	378.04	72.493	302.19	352.28	81.726	381.9	551.03	672.86	111.15	490.25	658.73	443.44	391.19	862.76	-48.487	490.22	575.55	92.236	483.8	663.28	72.686	348.15	1119.7	-13.263	327.46	981.94	182.33	315.03	978.71	286.56	522.29	369.39	178.39	486.73	458.24	113.38	314.12	1151.1	243	525.6	857.55	506.35	500.31	278.96	190.69	485.07	188.5	201.02	449.24	1591.9	171.3	478.11	760.46	61.062	566.65	37.17	253.25	344.43	1374.3	354.73	356.29	29.716	227.22	548.29	1377.4	241.68	476.17	275.59	122.88	406.09	71.06	180.16	611.44	37.403	236.57	287.12	197.54	375.93	537.96	33.016	167.53	323.28	190.83	291.61	363.47	1086.2	446.33	420.12	61.791	332.56	393.06	1243.7	-6.1568	459.98	819.13	-68.861	222.09	183.18	329.1
371	1.855	466.53	1608.2	309.59	422.56	1461.1	253.64	492.57	953.85	401.59	488.19	1422.9	403.11	442.49	1239.4	497.69	397.75	1115.8	535.63	453.8	975.1	552.92	459.22	845.3	547	510.39	799.32	549.64	454.48	1439	79.573	338.11	1120.9	63.298	428.13	981.55	-53.75	478.74	872.88	-19.262	465.01	749.92	444.96	533.02	572.72	435.99	565.45	687.85	427.29	550.46	478.43	427.34	544.94	379.21	345.18	417.6	238.36	340.86	467.01	317.99	415.75	484.65	309.33	344.71	398.32	71.156	302.78	372.14	79.855	382.43	554.66	671.98	110.87	498.98	660.17	443.91	402.44	863.74	-48.6	492.79	575.38	91.666	487.38	663.21	72.293	355.71	1120.2	-14.127	333.55	982.27	182.3	321.29	979.16	286.57	523.06	369.1	177.7	487.96	458.03	112.71	320.44	1151.4	242.57	525.42	855.74	506.41	500.85	278.76	190.12	485.38	188.36	200.61	455.62	1592.5	171.89	482.81	760.48	60.843	566.68	37.162	253.21	350.45	1374.5	354.31	356.31	29.803	227.19	554.53	1377.7	241.8	476.63	275.38	122.34	406.13	71.057	180.06	611.51	37.263	236.53	303.8	193.51	376	538.05	32.871	167.31	340.21	187.64	291.74	367.03	1086.9	445.29	440.7	61.712	333.33	400.17	1244.5	-6.6588	471.96	821.19	-68.807	239.08	177.22	329.06
372	1.86	473.16	1608.4	310.19	428.85	1461.3	253.66	499.05	954.26	401.05	494.14	1422.8	403.26	447.19	1239.2	497.32	401.23	1116	534.71	455.27	974.66	552.47	458.75	844.69	546.86	509.16	797.88	549.78	461.05	1439.7	79.659	345.53	1121.4	62.448	437.71	982.8	-54.076	489.76	875.03	-19.198	472.72	750.9	445.25	542.65	574.4	436.38	573.77	689.83	427.4	561.17	480.05	427.61	557.36	380.76	345.51	433.33	236.99	341.02	480.81	317.67	415.95	498.71	309.48	344.98	418.76	69.802	303.4	392.16	77.943	382.97	558.31	671.09	110.62	507.68	661.54	444.4	413.71	864.69	-48.685	495.41	575.19	91.108	491	663.1	71.911	363.26	1120.7	-15.006	339.63	982.51	182.28	327.55	979.51	286.59	523.86	368.8	177.03	489.25	457.8	112.05	326.75	1151.6	242.16	525.25	853.96	506.47	501.42	278.55	189.58	485.7	188.21	200.21	462.01	1593	172.49	487.52	760.45	60.637	566.73	37.15	253.18	356.48	1374.6	353.88	356.32	29.904	227.16	560.78	1377.9	241.91	477.12	275.17	121.81	406.18	71.057	179.96	611.61	37.086	236.51	320.66	189.33	376.09	538.15	32.718	167.08	357.31	184.33	291.89	370.59	1087.6	444.24	461.38	61.633	334.13	407.27	1245.3	-7.1689	483.95	823.25	-68.719	256.32	171.1	329.05
373	1.865	479.75	1608.5	310.79	435.14	1461.4	253.67	505.54	954.55	400.54	500.1	1422.7	403.4	451.87	1239	496.94	404.7	1116.1	533.77	456.73	974.21	552.01	458.3	844.1	546.7	507.95	796.48	549.92	467.62	1440.3	79.743	352.92	1121.7	61.578	447.28	984.02	-54.399	500.77	877.17	-19.113	480.43	751.8	445.55	552.19	575.99	436.76	582.04	691.68	427.46	571.75	481.57	427.85	569.69	382.24	345.81	449.13	235.53	341.2	494.61	317.27	416.16	512.75	309.56	345.26	439.33	68.446	304.03	412.32	76.006	383.53	561.97	670.17	110.4	516.33	662.82	444.89	424.99	865.62	-48.744	498.09	574.97	90.567	494.65	662.96	71.544	370.79	1121.2	-15.901	345.71	982.68	182.27	333.8	979.77	286.63	524.71	368.48	176.4	490.6	457.56	111.42	333.06	1151.8	241.77	525.09	852.21	506.54	502.03	278.32	189.05	486.04	188.05	199.82	468.39	1593.4	173.1	492.24	760.38	60.445	566.79	37.133	253.16	362.52	1374.7	353.46	356.34	30.018	227.11	567.05	1378.1	242.01	477.67	274.95	121.29	406.25	71.06	179.86	611.74	36.869	236.51	337.69	185.03	376.19	538.27	32.559	166.84	374.57	180.93	292.06	374.18	1088.2	443.18	482.16	61.567	334.96	414.36	1246	-7.6861	495.95	825.31	-68.597	273.81	164.84	329.07
374	1.87	486.32	1608.4	311.39	441.45	1461.5	253.67	512.03	954.72	400.04	506.08	1422.4	403.55	456.54	1238.7	496.57	408.15	1116.2	532.84	458.2	973.73	551.55	457.89	843.51	546.5	506.76	795.12	550.04	474.22	1440.7	79.826	360.3	1122	60.687	456.84	985.18	-54.717	511.77	879.31	-19.01	488.13	752.61	445.86	561.64	577.48	437.12	590.25	693.42	427.46	582.19	482.98	428.06	581.92	383.64	346.11	465.01	234	341.4	508.4	316.79	416.37	526.77	309.56	345.54	460.04	67.105	304.7	432.63	74.062	384.12	565.65	669.25	110.22	524.93	664.02	445.4	436.28	866.53	-48.779	500.82	574.73	90.045	498.34	662.79	71.194	378.32	1121.5	-16.812	351.78	982.76	182.28	340.05	979.94	286.69	525.61	368.14	175.81	492.03	457.3	110.82	339.37	1151.9	241.41	524.94	850.49	506.6	502.69	278.08	188.54	486.4	187.87	199.45	474.77	1593.7	173.7	496.98	760.25	60.268	566.86	37.112	253.15	368.56	1374.6	353.03	356.36	30.146	227.07	573.32	1378.1	242.11	478.26	274.72	120.79	406.32	71.067	179.76	611.88	36.61	236.51	354.9	180.62	376.32	538.39	32.395	166.59	391.99	177.44	292.26	377.77	1088.7	442.12	503.03	61.529	335.81	421.44	1246.6	-8.2087	507.93	827.36	-68.442	291.56	158.49	329.12
375	1.875	492.88	1608.3	312	447.76	1461.4	253.66	518.52	954.77	399.57	512.07	1422.1	403.68	461.18	1238.4	496.19	411.6	1116.2	531.89	459.68	973.24	551.08	457.5	842.94	546.27	505.6	793.8	550.14	480.82	1441.1	79.908	367.65	1122.2	59.774	466.39	986.3	-55.03	522.75	881.42	-18.886	495.84	753.34	446.19	570.98	578.85	437.46	598.4	695.03	427.42	592.49	484.29	428.24	594.04	384.97	346.4	480.96	232.42	341.63	522.16	316.25	416.58	540.76	309.5	345.82	480.87	65.795	305.38	453.06	72.127	384.72	569.35	668.31	110.07	533.47	665.13	445.91	447.58	867.41	-48.793	503.62	574.47	89.546	502.08	662.58	70.864	385.84	1121.8	-17.738	357.85	982.77	182.3	346.3	980.02	286.75	526.57	367.78	175.26	493.53	457.03	110.25	345.67	1151.9	241.07	524.82	848.79	506.67	503.4	277.82	188.06	486.79	187.69	199.1	481.15	1593.9	174.3	501.74	760.08	60.107	566.93	37.086	253.14	374.62	1374.5	352.6	356.38	30.288	227.01	579.61	1378.1	242.21	478.91	274.49	120.32	406.4	71.08	179.66	612.05	36.309	236.54	372.29	176.13	376.47	538.53	32.228	166.35	409.57	173.88	292.48	381.4	1089.2	441.05	523.97	61.532	336.68	428.53	1247.1	-8.7351	519.91	829.4	-68.254	309.56	152.06	329.21
376	1.88	499.41	1608	312.61	454.09	1461.3	253.65	525.02	954.71	399.11	518.08	1421.7	403.82	465.8	1238	495.82	415.04	1116.1	530.95	461.17	972.73	550.61	457.15	842.37	546.01	504.48	792.51	550.23	487.45	1441.4	79.99	374.98	1122.3	58.839	475.94	987.36	-55.338	533.71	883.52	-18.744	503.55	753.98	446.52	580.21	580.12	437.77	606.49	696.5	427.34	602.62	485.49	428.39	606.06	386.22	346.68	496.98	230.78	341.88	535.91	315.65	416.79	554.73	309.37	346.12	501.81	64.532	306.1	473.61	70.217	385.35	573.09	667.36	109.97	541.96	666.15	446.42	458.87	868.26	-48.786	506.49	574.18	89.075	505.88	662.34	70.556	393.37	1122	-18.678	363.92	982.7	182.34	352.55	980.01	286.83	527.59	367.4	174.75	495.12	456.74	109.72	351.96	1151.8	240.76	524.73	847.12	506.73	504.16	277.55	187.61	487.2	187.48	198.78	487.54	1594.1	174.9	506.52	759.86	59.962	567.02	37.056	253.14	380.69	1374.4	352.18	356.4	30.444	226.96	585.92	1378	242.31	479.62	274.25	119.87	406.5	71.098	179.56	612.25	35.965	236.58	389.85	171.57	376.66	538.68	32.06	166.1	427.3	170.29	292.73	385.05	1089.6	439.98	544.98	61.587	337.58	435.61	1247.5	-9.2633	531.87	831.43	-68.035	327.82	145.58	329.33
377	1.885	505.93	1607.7	313.22	460.43	1461.1	253.65	531.53	954.55	398.69	524.1	1421.2	403.96	470.41	1237.5	495.45	418.5	1116	529.99	462.68	972.19	550.14	456.85	841.81	545.71	503.4	791.25	550.3	494.08	1441.6	80.073	382.3	1122.3	57.883	485.47	988.38	-55.639	544.64	885.6	-18.582	511.25	754.53	446.86	589.32	581.27	438.06	614.51	697.84	427.21	612.59	486.57	428.51	617.95	387.39	346.95	513.07	229.1	342.16	549.62	315	417.01	568.67	309.18	346.42	522.85	63.331	306.84	494.28	68.35	385.99	576.86	666.4	109.9	550.39	667.06	446.93	470.16	869.09	-48.762	509.44	573.86	88.634	509.72	662.06	70.272	400.9	1122.1	-19.631	369.98	982.55	182.38	358.8	979.91	286.92	528.68	366.99	174.28	496.8	456.44	109.22	358.24	1151.7	240.49	524.68	845.48	506.79	504.99	277.26	187.19	487.64	187.27	198.47	493.93	1594.1	175.5	511.33	759.6	59.836	567.12	37.021	253.15	386.76	1374.2	351.76	356.43	30.613	226.91	592.23	1377.7	242.41	480.39	274	119.46	406.61	71.123	179.47	612.46	35.578	236.63	407.59	166.98	376.87	538.82	31.892	165.86	445.19	166.66	293.02	388.73	1089.9	438.91	566.04	61.706	338.49	442.7	1247.9	-9.7913	543.81	833.44	-67.785	346.32	139.08	329.5
378	1.89	512.44	1607.2	313.83	466.79	1460.9	253.64	538.05	954.29	398.28	530.14	1420.6	404.09	475	1237	495.09	421.96	1115.8	529.04	464.21	971.64	549.66	456.6	841.25	545.38	502.36	790.02	550.35	500.73	1441.7	80.157	389.6	1122.2	56.907	494.99	989.35	-55.933	555.54	887.65	-18.4	518.94	754.98	447.21	598.31	582.29	438.32	622.47	699.03	427.04	622.38	487.53	428.6	629.73	388.48	347.21	529.22	227.41	342.46	563.31	314.31	417.24	582.56	308.94	346.74	543.98	62.207	307.6	515.04	66.542	386.66	580.67	665.43	109.88	558.75	667.87	447.43	481.45	869.9	-48.721	512.47	573.52	88.227	513.62	661.74	70.015	408.43	1122.1	-20.595	376.03	982.33	182.43	365.05	979.73	287.02	529.85	366.55	173.86	498.59	456.12	108.77	364.52	1151.5	240.24	524.67	843.85	506.84	505.87	276.94	186.8	488.11	187.04	198.2	500.32	1594	176.08	516.15	759.29	59.728	567.23	36.982	253.17	392.85	1373.9	351.34	356.46	30.795	226.86	598.57	1377.4	242.51	481.22	273.74	119.07	406.73	71.155	179.38	612.7	35.147	236.71	425.49	162.36	377.11	538.97	31.727	165.62	463.22	163.03	293.33	392.45	1090.2	437.84	587.15	61.901	339.42	449.8	1248.2	-10.317	555.73	835.44	-67.505	365.07	132.58	329.71
